# xmcd
#
# Track frame offsets:
# 150
# 15265
# 34082
# 51447
# 69540
# 96372
# 121727
# 136375
# 154905
# 173515
#
# Disc length: 2480 seconds
#
#
# Revision: 0
# Processed by: cddbd v1.5.1PL2 Copyright (c) Steve Scherf et al.
# Submitted via: FreeRIP 2.945 
#
DISCID=7c09ae0a
DTITLE=Viola Wills - Soul Sisters
DYEAR=1989
DGENRE=Soul
TTITLE0=Gonna get along without you now
TTITLE1=Secret love
TTITLE2=Midnight blue
TTITLE3=Don't ever stop loving me
TTITLE4=Up on the roof
TTITLE5=If you could read my mind
TTITLE6=That same old feeling
TTITLE7=Let me be your rock
TTITLE8=There's always something there to remind me
TTITLE9=Starry eyed
EXTD=
EXTT0=
EXTT1=
EXTT2=
EXTT3=
EXTT4=
EXTT5=
EXTT6=
EXTT7=
EXTT8=
EXTT9=
PLAYORDER=
